<?xml version="1.0" encoding="UTF-8"?><svg id="Capa_1" xmlns="http://www.w3.org/2000/svg" viewBox="0 0 579.52 229.45"><defs><style>.cls-1{fill:#1d1d1b;}</style></defs><path class="cls-1" d="M52.88,189.61c11.39,9.17,28.1,13.75,50.12,13.75H35.78v-54.14c0,17.76,5.7,31.21,17.1,40.39Zm40.11-15.5c6.5,5.89,16.21,8.84,29.11,8.84s24.06-3.26,31.8-9.78c7.74-6.5,11.61-15.48,11.61-26.95V26.09H83.24v121.63c0,11.7,3.25,20.49,9.75,26.38Zm43.68,23.97c-10.39,3.52-21.61,5.29-33.67,5.29h62.71l.14-21.16c-9.05,7.05-18.77,12.34-29.17,15.87Zm108.15-63.05c4.28,3.89,11.42,5.83,21.39,5.83,14.5,0,26.07-4.19,34.7-12.57,8.64-8.38,12.96-19.67,12.96-33.9,0-16.42-5.65-29.2-16.94-38.35-11.3-9.15-27.15-13.72-47.53-13.72h-11.01V115.2c0,9.31,2.13,15.91,6.43,19.82Zm95.55,2.02c-17.29,12.24-38.92,18.35-64.91,18.35-7.07,0-13.7-.37-19.83-1.13-6.16-.76-11.9-1.94-17.23-3.55v52.64h127.92V90.62c0,18.72-8.65,34.2-25.94,46.42ZM258.85,26.09c33.83,0,60.22,5.7,79.1,17.09,18.89,11.39,28.35,27.21,28.35,47.44V26.09h-107.46Zm234.45,119.91c0-13.29-4.95-23.55-14.84-30.73-9.89-7.2-24.02-10.8-42.39-10.8h-20.5v82.68h17.67c20.01,0,35.02-3.43,45.04-10.29,10.01-6.86,15.01-17.15,15.01-30.87Zm-33.73-97.63c-7.07-3.83-17.43-5.76-31.1-5.76h-12.89v45.33h15.9c12.48,0,22.05-1.96,28.71-5.87,6.65-3.91,9.98-9.53,9.98-16.85s-3.53-13.02-10.6-16.84Zm-17.31-22.28c24.88,0,43.54,3.04,55.97,9.13,12.44,6.1,18.67,15.18,18.67,27.27,0,7.79-3.98,14.51-11.95,20.17-7.96,5.67-18.97,9.52-33.01,11.55,22.51,1.69,40.1,7.11,52.78,16.21,12.67,9.12,19,20.97,19,35.56V26.09h-101.47Zm77.07,161.44c-16.28,10.56-37.61,15.83-63.99,15.83h88.39v-57.37c0,17.14-8.14,30.98-24.4,41.55Z"/></svg>